<svg width="512" height="512" viewBox="0 0 512 512" fill="none" xmlns="http://www.w3.org/2000/svg">
  <rect width="512" height="512" rx="80" fill="#6366f1"/>
  <circle cx="256" cy="256" r="160" fill="white" fill-opacity="0.1"/>
  <path d="M256 150c-58.91 0-106 47.09-106 106s47.09 106 106 106 106-47.09 106-106-47.09-106-106-106zm0 20c47.128 0 86 38.872 86 86s-38.872 86-86 86-86-38.872-86-86 38.872-86 86-86z" fill="white"/>
  <path d="M256 214c-23.564 0-42 18.436-42 42s18.436 42 42 42 42-18.436 42-42-18.436-42-42-42z" fill="#fbbf24"/>
  <path d="M204 204h20v20h-20v-20zm64 0h20v20h-20v-20zm-64 64h20v20h-20v-20zm64 0h20v20h-20v-20z" fill="white"/>
  <text x="256" y="400" text-anchor="middle" fill="white" font-family="Arial, sans-serif" font-size="48" font-weight="bold">KrizPay</text>
</svg>